<?xml version="1.0" encoding="UTF-8" standalone="no"?>
<svg
   xmlns:dc="http://purl.org/dc/elements/1.1/"
   xmlns:cc="http://creativecommons.org/ns#"
   xmlns:rdf="http://www.w3.org/1999/02/22-rdf-syntax-ns#"
   xmlns:svg="http://www.w3.org/2000/svg"
   xmlns="http://www.w3.org/2000/svg"
   xmlns:sodipodi="http://sodipodi.sourceforge.net/DTD/sodipodi-0.dtd"
   xmlns:inkscape="http://www.inkscape.org/namespaces/inkscape"
   width="24"
   height="23.832012"
   viewBox="0 0 250.03516 248.28504"
   version="1.1"
   id="svg885"
   sodipodi:docname="facebook.svg"
   inkscape:version="1.0.1 (1.0.1+r73)">
  <metadata
     id="metadata891">
    <rdf:RDF>
      <cc:Work
         rdf:about="">
        <dc:format>image/svg+xml</dc:format>
        <dc:type
           rdf:resource="http://purl.org/dc/dcmitype/StillImage" />
        <dc:title></dc:title>
      </cc:Work>
    </rdf:RDF>
  </metadata>
  <defs
     id="defs889" />
  <sodipodi:namedview
     pagecolor="#ffffff"
     bordercolor="#666666"
     borderopacity="1"
     objecttolerance="10"
     gridtolerance="10"
     guidetolerance="10"
     inkscape:pageopacity="0"
     inkscape:pageshadow="2"
     inkscape:window-width="1600"
     inkscape:window-height="801"
     id="namedview887"
     showgrid="false"
     fit-margin-top="0"
     fit-margin-left="0"
     fit-margin-right="0"
     fit-margin-bottom="0"
     inkscape:zoom="0.28861932"
     inkscape:cx="680.41862"
     inkscape:cy="679.3636"
     inkscape:window-x="0"
     inkscape:window-y="28"
     inkscape:window-maximized="1"
     inkscape:current-layer="svg885" />
  <path
     id="circle881"
     style="fill:#1977f3;stroke-width:1"
     d="M 7087.9641,-32.303407 A 7111.0002,7111.0002 0 0 0 -22.309178,7078.7025 7111.0002,7111.0002 0 0 0 5977.7006,14102.354 V 9134.6964 H 4171.6808 V 7078.7025 H 5977.7006 V 5511.7096 c 0,-1783 1061.9857,-2767.0111 2685.9857,-2767.0111 778,0 1592.0007,138.9966 1592.0007,138.9966 v 1750.002 h -896.9973 c -884.0001,0 -1158.9969,548.9961 -1158.9969,1110.9962 V 7078.7025 H 10171.691 L 9856.6845,9134.6964 H 8199.6928 V 14102.375 A 7111.0002,7111.0002 0 0 0 14199.682,7078.7025 7111.0002,7111.0002 0 0 0 7088.6967,-32.303407 a 7111.0002,7111.0002 0 0 0 -0.7324,0 z M 7421.9345,14181.874 c -13.2231,0.615 -26.4569,1.207 -39.6988,1.75 a 7111.0002,7111.0002 0 0 0 39.6988,-1.75 z m -57.9305,2.503 c -19.2029,0.74 -38.4241,1.389 -57.666,1.974 a 7111.0002,7111.0002 0 0 0 57.666,-1.974 z m -66.4766,2.259 c -21.3923,0.625 -42.7987,1.153 -64.2385,1.587 a 7111.0002,7111.0002 0 0 0 64.2385,-1.587 z m -69.0812,1.689 c -22.9595,0.448 -45.9461,0.792 -68.9591,1.021 a 7111.0002,7111.0002 0 0 0 68.9591,-1.021 z m -68.9591,1.021 c -23.3328,0.229 -46.6915,0.364 -70.0782,0.364 a 7111.0002,7111.0002 0 0 0 70.0782,-0.364 z m -196.683,-0.771 a 7111.0002,7111.0002 0 0 0 49.0385,0.708 c -16.3618,-0.166 -32.7037,-0.437 -49.0385,-0.708 z m 60.5351,0.812 a 7111.0002,7111.0002 0 0 0 65.3575,0.323 c -21.8119,0 -43.5927,-0.135 -65.3575,-0.323 z" />
  <path
     style="fill:#ffffff;stroke-width:0.636502"
     d="M 98.582652,247.01796 C 75.442407,242.00413 53.556813,230.01831 36.66512,213.10835 -0.75810668,175.64464 -10.600314,118.88266 12.082862,71.337515 28.535426,36.852066 60.458078,11.164793 97.094802,2.9307622 c 17.386948,-3.90768295 38.418408,-3.90768295 55.805358,0 42.04161,9.4487648 76.95197,41.2762388 90.74131,82.7280428 23.35212,70.198245 -19.49206,145.151315 -92.23202,161.353865 -3.1417,0.6998 -5.85842,1.27237 -6.03717,1.27237 -0.17875,0 -0.32499,-19.62017 -0.32499,-43.60038 v -43.60038 h 14.63955 c 9.6669,0 14.63954,-0.2238 14.63954,-0.65888 0,-0.36239 1.1457,-8.08581 2.54601,-17.16317 1.4003,-9.07736 2.546,-16.94399 2.546,-17.48142 0,-0.85438 -2.15887,-0.97713 -17.18555,-0.97713 h -17.18555 l 0.004,-13.84392 c 0.002,-7.61415 0.29609,-14.897195 0.65365,-16.184535 1.21361,-4.3695 4.43284,-8.28791 8.52385,-10.37511 3.72925,-1.90263 3.89927,-1.92613 15.43517,-2.1335 l 11.66412,-0.20967 V 66.273536 50.490133 l -6.20589,-0.78868 c -8.9494,-1.137342 -21.22954,-1.660031 -27.84696,-1.185276 -23.76248,1.7048 -38.74374,16.308573 -41.67684,40.626698 -0.3578,2.96646 -0.65054,12.203695 -0.65054,20.527185 v 15.13362 H 89.035132 73.122582 v 18.1403 18.1403 h 15.91255 15.912538 v 43.60038 c 0,23.98021 -0.21482,43.57904 -0.47737,43.55297 -0.26256,-0.0261 -2.912,-0.57493 -5.887648,-1.21967 z"
     id="path895" />
</svg>
