<?xml version="1.0" encoding="UTF-8" standalone="no"?>
<svg
   xmlns:dc="http://purl.org/dc/elements/1.1/"
   xmlns:cc="http://creativecommons.org/ns#"
   xmlns:rdf="http://www.w3.org/1999/02/22-rdf-syntax-ns#"
   xmlns:svg="http://www.w3.org/2000/svg"
   xmlns="http://www.w3.org/2000/svg"
   xmlns:sodipodi="http://sodipodi.sourceforge.net/DTD/sodipodi-0.dtd"
   xmlns:inkscape="http://www.inkscape.org/namespaces/inkscape"
   id="Flat"
   height="40"
   viewBox="0 0 40 40"
   width="40"
   version="1.1"
   sodipodi:docname="favicon-32x32.svg"
   inkscape:version="1.0.1 (1.0.1+r73)">
  <metadata
     id="metadata1322">
    <rdf:RDF>
      <cc:Work
         rdf:about="">
        <dc:format>image/svg+xml</dc:format>
        <dc:type
           rdf:resource="http://purl.org/dc/dcmitype/StillImage" />
        <dc:title></dc:title>
      </cc:Work>
    </rdf:RDF>
  </metadata>
  <defs
     id="defs1320" />
  <sodipodi:namedview
     pagecolor="#ffffff"
     bordercolor="#666666"
     borderopacity="1"
     objecttolerance="10"
     gridtolerance="10"
     guidetolerance="10"
     inkscape:pageopacity="0"
     inkscape:pageshadow="2"
     inkscape:window-width="1600"
     inkscape:window-height="801"
     id="namedview1318"
     showgrid="false"
     inkscape:zoom="0.62597655"
     inkscape:cx="240"
     inkscape:cy="65.774336"
     inkscape:window-x="0"
     inkscape:window-y="28"
     inkscape:window-maximized="1"
     inkscape:current-layer="Flat"
     inkscape:document-rotation="0"
     fit-margin-top="0"
     fit-margin-left="0"
     fit-margin-right="0"
     fit-margin-bottom="0" />
  <g
     id="g3442"
     transform="matrix(0.08333333,0,0,0.08333263,-1.3333333,-1.3329838)">
    <path
       d="m 40,496 a 8,8 0 0 1 -8,-8 v -32 a 8,8 0 0 1 16,0 v 32 a 8,8 0 0 1 -8,8 z"
       fill="#c79e10"
       id="path1275" />
    <path
       d="m 168,496 a 8,8 0 0 1 -8,-8 v -32 a 8,8 0 0 1 16,0 v 32 a 8,8 0 0 1 -8,8 z"
       fill="#c79e10"
       id="path1277" />
    <path
       d="m 396.286,170.255 a 55.985,55.985 0 0 0 -24.479,-86.639 48,48 0 1 0 -87.614,0 55.985,55.985 0 0 0 -24.479,86.639 60,60 0 1 0 68.286,87.663 60,60 0 1 0 68.286,-87.663 z"
       fill="#38b37a"
       id="path1279" />
    <path
       d="m 204.286,170.255 a 55.985,55.985 0 0 0 -24.479,-86.639 48,48 0 1 0 -87.614,0 55.985,55.985 0 0 0 -24.479,86.639 60,60 0 1 0 68.286,87.663 60,60 0 1 0 68.286,-87.663 z"
       fill="#3dc285"
       id="path1281" />
    <g
       fill="#ad6643"
       id="g1293">
      <path
         d="m 328,488 a 8,8 0 0 1 -8,-8 V 128 a 8,8 0 0 1 16,0 v 352 a 8,8 0 0 1 -8,8 z"
         id="path1283" />
      <path
         d="m 328,184 a 8,8 0 0 1 -5.657,-13.657 l 32,-32 a 8.0002061,8.0002061 0 0 1 11.314,11.314 l -32,32 A 7.976,7.976 0 0 1 328,184 Z"
         id="path1285" />
      <path
         d="m 328,240 a 7.976,7.976 0 0 1 -5.657,-2.343 l -32,-32 a 8.0002061,8.0002061 0 0 1 11.314,-11.314 l 32,32 A 8,8 0 0 1 328,240 Z"
         id="path1287" />
      <path
         d="m 136,488 a 8,8 0 0 1 -8,-8 V 128 a 8,8 0 0 1 16,0 v 352 a 8,8 0 0 1 -8,8 z"
         id="path1289" />
      <path
         d="m 136,184 a 8,8 0 0 1 -5.657,-13.657 l 32,-32 a 8.0002061,8.0002061 0 0 1 11.314,11.314 l -32,32 A 7.976,7.976 0 0 1 136,184 Z"
         id="path1291" />
    </g>
    <path
       d="m 40,392 h 128 v 32 H 40 Z"
       fill="#f7cc38"
       id="path1295" />
    <path
       d="M 184,464 H 24 a 8,8 0 0 1 0,-16 h 160 a 8,8 0 0 1 0,16 z"
       fill="#d4a811"
       id="path1297" />
    <path
       d="m 464,488 a 24,24 0 0 0 0,-48 c -0.52,0 -1,0.12 -1.517,0.153 A 23.888,23.888 0 0 0 423.835,414.365 23.819,23.819 0 0 0 384,398.229 23.819,23.819 0 0 0 344.165,414.365 23.858,23.858 0 0 0 305.517,440.153 C 305.005,440.12 304.517,440 304,440 a 24,24 0 0 0 0,48 z"
       fill="#2e9163"
       id="path1301" />
    <circle
       cx="384"
       cy="432"
       fill="#e38fa7"
       r="8"
       id="circle1303" />
    <circle
       cx="432"
       cy="448"
       fill="#e38fa7"
       r="8"
       id="circle1305" />
    <circle
       cx="336"
       cy="456"
       fill="#e38fa7"
       r="8"
       id="circle1307" />
    <path
       d="m 136,240 a 7.976,7.976 0 0 1 -5.657,-2.343 l -32,-32 a 8.0002061,8.0002061 0 0 1 11.314,-11.314 l 32,32 A 8,8 0 0 1 136,240 Z"
       fill="#ad6643"
       id="path1309" />
    <path
       d="m 40,424 h 16 v 24 H 40 Z"
       fill="#c79e10"
       id="path1311" />
    <path
       d="m 152,424 h 16 v 24 h -16 z"
       fill="#c79e10"
       id="path1313" />
    <path
       d="M 488,496 H 24 a 8,8 0 0 1 0,-16 h 464 a 8,8 0 0 1 0,16 z"
       fill="#596063"
       id="path1315" />
    <text
       xml:space="preserve"
       style="font-style:normal;font-weight:normal;font-size:20px;line-height:1.25;font-family:sans-serif;opacity:0.95;fill:#000000;fill-opacity:1;stroke:none;stroke-width:0.999999"
       x="19.519754"
       y="35.140102"
       id="text12"><tspan
         sodipodi:role="line"
         id="tspan10"
         x="19.519754"
         y="35.140102"
         style="font-style:normal;font-variant:normal;font-weight:bold;font-stretch:normal;font-size:20px;font-family:Inter;-inkscape-font-specification:'Inter Bold';fill:#000000;fill-opacity:1;stroke-width:0.999999"><tspan
           style="font-style:normal;font-variant:normal;font-weight:bold;font-stretch:normal;font-size:20px;font-family:Inter;-inkscape-font-specification:'Inter Bold';fill:#3dc285;fill-opacity:1;stroke-width:0.999999"
           id="tspan2590">g</tspan><tspan
           style="font-style:normal;font-variant:normal;font-weight:bold;font-stretch:normal;font-size:20px;font-family:Inter;-inkscape-font-specification:'Inter Bold';fill:#ad6643;fill-opacity:1;stroke-width:0.999999"
           id="tspan2592">c</tspan></tspan></text>
  </g>
</svg>
