<?xml version="1.0" encoding="UTF-8" standalone="no"?>
<svg
   xmlns:dc="http://purl.org/dc/elements/1.1/"
   xmlns:cc="http://creativecommons.org/ns#"
   xmlns:rdf="http://www.w3.org/1999/02/22-rdf-syntax-ns#"
   xmlns:svg="http://www.w3.org/2000/svg"
   xmlns="http://www.w3.org/2000/svg"
   xmlns:sodipodi="http://sodipodi.sourceforge.net/DTD/sodipodi-0.dtd"
   xmlns:inkscape="http://www.inkscape.org/namespaces/inkscape"
   id="Flat"
   height="512"
   viewBox="0 0 512 512"
   width="512"
   version="1.1"
   sodipodi:docname="park3.svg"
   inkscape:version="1.0.1 (1.0.1+r73)">
  <metadata
     id="metadata1322">
    <rdf:RDF>
      <cc:Work
         rdf:about="">
        <dc:format>image/svg+xml</dc:format>
        <dc:type
           rdf:resource="http://purl.org/dc/dcmitype/StillImage" />
      </cc:Work>
    </rdf:RDF>
  </metadata>
  <defs
     id="defs1320" />
  <sodipodi:namedview
     pagecolor="#ffffff"
     bordercolor="#666666"
     borderopacity="1"
     objecttolerance="10"
     gridtolerance="10"
     guidetolerance="10"
     inkscape:pageopacity="0"
     inkscape:pageshadow="2"
     inkscape:window-width="1600"
     inkscape:window-height="801"
     id="namedview1318"
     showgrid="false"
     inkscape:zoom="1.2519531"
     inkscape:cx="256"
     inkscape:cy="256"
     inkscape:window-x="0"
     inkscape:window-y="28"
     inkscape:window-maximized="1"
     inkscape:current-layer="Flat" />
  <path
     d="m40 496a8 8 0 0 1 -8-8v-32a8 8 0 0 1 16 0v32a8 8 0 0 1 -8 8z"
     fill="#c79e10"
     id="path1275" />
  <path
     d="m168 496a8 8 0 0 1 -8-8v-32a8 8 0 0 1 16 0v32a8 8 0 0 1 -8 8z"
     fill="#c79e10"
     id="path1277" />
  <path
     d="m396.286 170.255a55.985 55.985 0 0 0 -24.479-86.639 48 48 0 1 0 -87.614 0 55.985 55.985 0 0 0 -24.479 86.639 60 60 0 1 0 68.286 87.663 60 60 0 1 0 68.286-87.663z"
     fill="#38b37a"
     id="path1279" />
  <path
     d="m204.286 170.255a55.985 55.985 0 0 0 -24.479-86.639 48 48 0 1 0 -87.614 0 55.985 55.985 0 0 0 -24.479 86.639 60 60 0 1 0 68.286 87.663 60 60 0 1 0 68.286-87.663z"
     fill="#3dc285"
     id="path1281" />
  <g
     fill="#ad6643"
     id="g1293">
    <path
       d="m328 488a8 8 0 0 1 -8-8v-352a8 8 0 0 1 16 0v352a8 8 0 0 1 -8 8z"
       id="path1283" />
    <path
       d="m328 184a8 8 0 0 1 -5.657-13.657l32-32a8 8 0 0 1 11.314 11.314l-32 32a7.976 7.976 0 0 1 -5.657 2.343z"
       id="path1285" />
    <path
       d="m328 240a7.976 7.976 0 0 1 -5.657-2.343l-32-32a8 8 0 0 1 11.314-11.314l32 32a8 8 0 0 1 -5.657 13.657z"
       id="path1287" />
    <path
       d="m136 488a8 8 0 0 1 -8-8v-352a8 8 0 0 1 16 0v352a8 8 0 0 1 -8 8z"
       id="path1289" />
    <path
       d="m136 184a8 8 0 0 1 -5.657-13.657l32-32a8 8 0 0 1 11.314 11.314l-32 32a7.976 7.976 0 0 1 -5.657 2.343z"
       id="path1291" />
  </g>
  <path
     d="m40 392h128v32h-128z"
     fill="#f7cc38"
     id="path1295" />
  <path
     d="m184 464h-160a8 8 0 0 1 0-16h160a8 8 0 0 1 0 16z"
     fill="#d4a811"
     id="path1297" />
  <path
     d="m464 488a24 24 0 0 0 0-48c-.52 0-1 .12-1.517.153a23.888 23.888 0 0 0 -38.648-25.788 23.819 23.819 0 0 0 -39.835-16.136 23.819 23.819 0 0 0 -39.835 16.136 23.858 23.858 0 0 0 -38.648 25.788c-.512-.033-1-.153-1.517-.153a24 24 0 0 0 0 48z"
     fill="#2e9163"
     id="path1301" />
  <circle
     cx="384"
     cy="432"
     fill="#e38fa7"
     r="8"
     id="circle1303" />
  <circle
     cx="432"
     cy="448"
     fill="#e38fa7"
     r="8"
     id="circle1305" />
  <circle
     cx="336"
     cy="456"
     fill="#e38fa7"
     r="8"
     id="circle1307" />
  <path
     d="m136 240a7.976 7.976 0 0 1 -5.657-2.343l-32-32a8 8 0 0 1 11.314-11.314l32 32a8 8 0 0 1 -5.657 13.657z"
     fill="#ad6643"
     id="path1309" />
  <path
     d="m40 424h16v24h-16z"
     fill="#c79e10"
     id="path1311" />
  <path
     d="m152 424h16v24h-16z"
     fill="#c79e10"
     id="path1313" />
  <path
     d="m488 496h-464a8 8 0 0 1 0-16h464a8 8 0 0 1 0 16z"
     fill="#596063"
     id="path1315" />
</svg>
