<?xml version="1.0" encoding="UTF-8"?>
<!DOCTYPE svg PUBLIC "-//W3C//DTD SVG 1.1//EN" "http://www.w3.org/Graphics/SVG/1.1/DTD/svg11.dtd">
<svg version="1.1" xmlns="http://www.w3.org/2000/svg" xmlns:xlink="http://www.w3.org/1999/xlink" x="0" y="0" width="600" height="1036" viewBox="0, 0, 600, 1036">
  <g id="Layer_1">
    <path d="M516.2,727.174 L516.438,726.962 C516.362,727.034 516.282,727.104 516.2,727.174 M277.64,749.28 L220.148,788.408 L268.934,788.408 L335.594,743.044 C336.842,743.218 338.124,743.378 339.44,743.532 L340.044,743.6 L340.156,743.612 L340.746,743.68 L340.826,743.692 C341.698,743.79 342.592,743.884 343.5,743.974 L343.504,743.98 L344.13,744.04 L344.264,744.054 L344.9,744.118 L344.92,744.12 C345.806,744.202 346.708,744.286 347.62,744.368 L347.84,744.384 L348.388,744.432 L348.618,744.456 L349.15,744.498 L349.436,744.52 L349.962,744.566 L350.098,744.574 C350.782,744.628 351.468,744.686 352.166,744.732 L352.282,744.742 L352.876,744.782 L353.142,744.806 L353.696,744.842 L353.964,744.86 L354.528,744.898 L354.774,744.914 L355.336,744.956 C355.598,744.97 355.86,744.986 356.124,745.004 L356.156,745.004 L356.652,745.034 L357.006,745.06 L357.5,745.088 L357.922,745.114 L358.376,745.14 L358.78,745.16 L359.28,745.19 L359.318,745.19 C359.584,745.208 359.848,745.222 360.116,745.232 L360.13,745.236 L360.25,745.24 L361.018,745.282 L361.384,745.3 L361.9,745.322 L362.348,745.346 L362.86,745.372 L363.268,745.39 L363.708,745.406 L364.244,745.432 L364.268,745.432 L365.1,745.47 L365.11,745.47 L365.288,745.478 L366.042,745.504 L366.41,745.52 L366.962,745.542 L367.364,745.558 L367.976,745.58 L368.334,745.592 L368.964,745.612 L369.3,745.624 L369.91,745.642 L370.768,745.666 L371.19,745.678 L371.638,745.69 L372.228,745.71 L372.57,745.718 L373.234,745.732 L373.612,745.742 L374.214,745.754 L374.626,745.77 L375.398,745.78 L375.598,745.788 L375.602,745.788 C375.902,745.792 376.206,745.798 376.51,745.806 L376.554,745.806 L377.042,745.81 L377.596,745.822 L378.042,745.83 L378.63,745.838 L379.05,745.844 L379.694,745.852 L380.082,745.856 C380.418,745.862 380.76,745.864 381.1,745.868 C381.46,745.87 381.816,745.874 382.172,745.876 L382.36,745.878 C382.648,745.878 382.942,745.882 383.234,745.886 L383.502,745.886 L384.284,745.89 L384.646,745.89 L385.33,745.896 L385.708,745.896 C386.06,745.896 386.412,745.896 386.762,745.896 C443.124,745.896 500.54,737.912 515.014,728.064 C515.226,727.92 515.436,727.77 515.63,727.624 L515.652,727.606 C515.748,727.536 515.836,727.464 515.926,727.396 L515.928,727.396 C516.022,727.316 516.11,727.246 516.196,727.174 L516.2,727.174 C516.282,727.104 516.362,727.034 516.438,726.962 L516.474,726.932 C516.542,726.87 516.612,726.806 516.678,726.742 L516.706,726.716 C516.776,726.648 516.842,726.582 516.908,726.516 L516.916,726.508 L516.926,726.496 C516.994,726.432 517.05,726.368 517.112,726.302 L517.12,726.292 L517.122,726.29 L517.132,726.276 C517.192,726.216 517.246,726.148 517.298,726.084 L517.324,726.056 C517.376,725.994 517.422,725.932 517.472,725.872 L517.494,725.836 C517.538,725.78 517.584,725.724 517.626,725.66 L517.662,725.608 L517.76,725.458 L517.802,725.386 L517.882,725.252 L517.926,725.17 C517.952,725.12 517.976,725.07 518,725.024 L518.038,724.948 L518.088,724.838 L518.128,724.73 L518.168,724.626 L518.204,724.518 L518.236,724.41 L518.266,724.298 L518.284,724.208 L518.308,724.058 L518.308,724.052 L518.318,723.988 L518.336,723.874 L518.336,723.856 L518.342,723.798 C518.534,720.708 513.666,717.942 504.736,715.722 C519.4,713.22 530.538,710.084 535.532,706.684 C540.884,703.04 538.294,699.706 529.654,697.122 C558.882,695.512 584.73,691.06 592.432,685.822 C602.126,679.222 579.376,673.876 541.62,673.876 C531.182,673.876 520.69,674.282 510.766,675.014 C505.542,673.704 499.164,672.548 491.762,671.58 C500.624,669.646 507.296,667.422 510.766,665.066 C521.872,657.508 495.812,651.384 452.558,651.384 C409.308,651.384 365.244,657.508 354.136,665.066 C350.362,667.636 350.89,670.036 354.918,672.09 C340.552,673.56 327.222,675.4 315.598,677.52 C305.73,676.244 292.95,675.504 278.102,675.504 C235.742,675.504 192.582,681.506 181.704,688.908 C175.25,693.304 181.62,697.198 196.72,699.644 C187.028,702.104 179.668,704.818 175.48,707.67 C172.3,709.834 171.182,711.916 171.898,713.868 C139.532,717.986 114.176,723.968 104.392,730.628 C103.312,731.362 102.452,732.084 101.794,732.802 C101.64,732.972 101.502,733.138 101.37,733.302 L101.332,733.348 C101.212,733.504 101.104,733.656 100.998,733.812 L100.952,733.89 C100.854,734.042 100.768,734.192 100.694,734.34 L100.646,734.42 C100.574,734.568 100.512,734.716 100.458,734.862 L100.422,734.952 C100.372,735.094 100.328,735.236 100.298,735.386 L100.274,735.474 C100.246,735.62 100.222,735.762 100.204,735.9 L100.2,735.986 C100.194,736.132 100.188,736.276 100.194,736.42 L100.2,736.496 C100.214,736.644 100.23,736.788 100.256,736.93 L100.274,736.996 C100.308,737.146 100.346,737.292 100.396,737.438 L100.412,737.474 C100.876,738.776 102.076,740.026 103.964,741.214 L104.018,741.248 C104.228,741.38 104.444,741.506 104.666,741.632 L104.798,741.71 C105.012,741.83 105.234,741.948 105.462,742.066 L105.644,742.166 C105.866,742.278 106.094,742.39 106.33,742.498 L106.556,742.608 C106.792,742.718 107.028,742.826 107.274,742.932 L107.538,743.052 C107.786,743.156 108.038,743.26 108.292,743.36 L108.58,743.482 C108.84,743.582 109.11,743.684 109.386,743.786 L109.676,743.898 C109.954,743.998 110.24,744.1 110.528,744.202 C110.638,744.24 110.744,744.274 110.85,744.312 C111.148,744.412 111.446,744.516 111.752,744.614 C111.856,744.648 111.962,744.68 112.064,744.714 C112.382,744.816 112.702,744.914 113.03,745.016 C113.132,745.046 113.24,745.074 113.344,745.11 C113.69,745.212 114.034,745.31 114.384,745.414 L114.614,745.478 C114.996,745.584 115.39,745.69 115.788,745.798 L115.9,745.83 C117.714,746.31 119.668,746.768 121.768,747.206 L121.924,747.238 C122.33,747.324 122.752,747.41 123.172,747.49 C123.334,747.524 123.492,747.562 123.656,747.592 C124.04,747.666 124.43,747.736 124.824,747.814 C125.026,747.852 125.234,747.894 125.442,747.93 C125.82,748.002 126.202,748.066 126.584,748.134 C126.818,748.176 127.05,748.22 127.284,748.258 C127.658,748.326 128.038,748.386 128.416,748.452 C128.676,748.494 128.934,748.542 129.198,748.58 C129.566,748.644 129.944,748.702 130.318,748.764 C130.598,748.81 130.872,748.852 131.156,748.894 C131.534,748.954 131.916,749.012 132.298,749.066 C132.59,749.11 132.876,749.152 133.168,749.196 C133.55,749.252 133.938,749.306 134.328,749.362 C134.636,749.404 134.942,749.448 135.254,749.488 C135.638,749.544 136.028,749.59 136.416,749.646 C136.738,749.688 137.062,749.73 137.386,749.772 C137.776,749.82 138.162,749.872 138.554,749.916 C138.898,749.964 139.246,750.004 139.596,750.044 C139.98,750.09 140.368,750.14 140.758,750.188 C141.112,750.228 141.474,750.268 141.836,750.308 C142.23,750.354 142.618,750.398 143.02,750.44 C143.388,750.482 143.762,750.52 144.132,750.562 C144.536,750.6 144.93,750.644 145.332,750.686 C145.718,750.724 146.102,750.76 146.49,750.804 C146.89,750.842 147.296,750.882 147.704,750.922 C148.122,750.956 148.546,750.996 148.968,751.038 C149.346,751.07 149.724,751.108 150.106,751.144 C150.594,751.186 151.086,751.228 151.582,751.27 C152.212,751.324 152.85,751.376 153.492,751.426 C154.014,751.47 154.536,751.51 155.066,751.554 C155.426,751.58 155.79,751.608 156.156,751.634 C156.652,751.668 157.144,751.708 157.644,751.742 C158.04,751.772 158.444,751.8 158.842,751.826 C159.316,751.856 159.788,751.892 160.256,751.92 C160.678,751.95 161.104,751.976 161.524,752 C161.996,752.03 162.466,752.06 162.94,752.09 C163.356,752.114 163.778,752.14 164.194,752.16 C164.686,752.19 165.18,752.22 165.674,752.244 C166.094,752.264 166.518,752.288 166.938,752.312 C167.438,752.336 167.94,752.362 168.444,752.386 C168.884,752.408 169.322,752.432 169.762,752.45 C170.252,752.476 170.744,752.492 171.24,752.518 C171.694,752.534 172.152,752.558 172.608,752.574 C173.11,752.594 173.616,752.616 174.126,752.638 C174.572,752.654 175.02,752.67 175.466,752.686 C175.988,752.706 176.506,752.726 177.028,752.74 C177.488,752.758 177.952,752.776 178.418,752.786 C178.936,752.806 179.458,752.822 179.984,752.836 C180.446,752.848 180.91,752.862 181.376,752.874 C181.916,752.892 182.462,752.9 183.004,752.912 C183.464,752.928 183.926,752.938 184.384,752.948 C184.938,752.962 185.496,752.972 186.052,752.982 C186.516,752.992 186.978,753.004 187.448,753.01 C188.028,753.022 188.616,753.028 189.202,753.04 C189.64,753.046 190.082,753.054 190.524,753.06 C191.158,753.066 191.792,753.072 192.426,753.078 C192.842,753.082 193.256,753.086 193.674,753.09 C194.366,753.096 195.068,753.102 195.768,753.106 C196.13,753.108 196.492,753.114 196.846,753.114 C197.914,753.12 198.988,753.12 200.066,753.12 C200.758,753.12 201.452,753.12 202.142,753.12 L202.384,753.12 C203.042,753.114 203.69,753.114 204.346,753.108 L204.708,753.106 C205.34,753.102 205.972,753.096 206.604,753.09 L206.992,753.086 C207.634,753.082 208.276,753.076 208.916,753.068 L209.19,753.066 C209.838,753.06 210.486,753.052 211.136,753.044 L211.238,753.04 L211.312,753.04 C211.95,753.028 212.588,753.018 213.228,753.004 L213.614,753 C214.25,752.988 214.886,752.976 215.52,752.964 L215.89,752.956 C216.522,752.946 217.154,752.93 217.786,752.912 L218.164,752.906 C218.806,752.892 219.452,752.88 220.096,752.858 L220.32,752.852 C220.932,752.838 221.542,752.822 222.156,752.806 L222.478,752.794 C223.098,752.776 223.712,752.758 224.334,752.738 L224.794,752.726 C225.392,752.706 225.99,752.686 226.586,752.666 L227.09,752.648 C227.684,752.628 228.282,752.606 228.876,752.586 L229.34,752.568 C229.92,752.548 230.498,752.522 231.074,752.5 L231.51,752.484 C232.06,752.464 232.61,752.44 233.166,752.414 L233.582,752.398 C234.164,752.374 234.746,752.348 235.33,752.322 L235.904,752.294 C236.476,752.27 237.044,752.244 237.614,752.22 L238.168,752.19 C238.728,752.16 239.284,752.14 239.84,752.106 L240.46,752.076 C240.906,752.052 241.358,752.03 241.804,752.006 L242.652,751.962 C243.09,751.938 243.53,751.914 243.964,751.892 L244.63,751.852 C245.148,751.822 245.662,751.796 246.17,751.762 L246.934,751.72 C247.438,751.69 247.936,751.66 248.442,751.628 L249.154,751.584 C249.628,751.554 250.104,751.524 250.584,751.494 L251.382,751.444 L252.518,751.37 C252.862,751.346 253.208,751.324 253.554,751.302 C253.938,751.272 254.322,751.246 254.71,751.22 L255.466,751.168 C255.952,751.132 256.434,751.1 256.916,751.066 L257.714,751.006 C258.184,750.974 258.648,750.94 259.12,750.9 L259.946,750.842 L260.966,750.76 C261.374,750.732 261.784,750.698 262.188,750.664 L263.048,750.598 C263.452,750.566 263.852,750.532 264.252,750.5 L265.23,750.422 C265.518,750.398 265.81,750.372 266.096,750.348 C266.532,750.308 266.964,750.274 267.394,750.238 L268.328,750.154 L269.282,750.072 C269.694,750.036 270.102,749.998 270.512,749.964 L271.268,749.892 C271.726,749.848 272.178,749.81 272.632,749.768 L273.406,749.696 C273.838,749.654 274.27,749.614 274.698,749.572 L275.528,749.488 C275.846,749.46 276.16,749.428 276.478,749.398 L276.51,749.396 C276.886,749.356 277.266,749.322 277.64,749.28" fill="#B8B0A5"/>
    <path d="M220.148,351.682 L268.938,351.682 L268.938,788.408 L220.148,788.408 z" fill="#8C6035"/>
    <path d="M112.196,142.252 C127.04,142.252 140.908,146.474 152.652,153.78 C161.162,141.652 171.788,131.118 183.994,122.712 C176.942,110.958 172.89,97.206 172.89,82.5 C172.89,39.252 207.95,4.19 251.204,4.19 C294.452,4.19 329.516,39.252 329.516,82.5 C329.516,96 326.1,108.7 320.084,119.788 C328.908,125.322 336.986,131.934 344.132,139.444 C352.982,135.26 362.876,132.916 373.318,132.916 C411.072,132.916 441.682,163.524 441.682,201.28 C441.682,231.268 422.372,256.742 395.51,265.958 C407.946,280.756 415.444,299.846 415.444,320.688 C415.444,340.144 408.908,358.074 397.924,372.41 C415.52,390.744 426.342,415.638 426.342,443.058 C426.342,499.418 380.65,545.106 324.292,545.106 C299.792,545.106 277.308,536.468 259.716,522.072 C237.464,560.562 195.866,586.458 148.214,586.458 C77.116,586.458 19.486,528.824 19.486,457.73 C19.486,419.622 36.05,385.386 62.368,361.816 C58.782,350.632 56.836,338.714 56.836,326.338 C56.836,310.022 60.206,294.494 66.286,280.406 C47.596,266.418 35.496,244.098 35.496,218.954 C35.496,176.596 69.832,142.252 112.196,142.252" fill="#8CA43D"/>
    <path d="M423.392,418.622 C425.316,426.45 426.338,434.636 426.338,443.058 C426.338,499.416 380.65,545.104 324.294,545.104 C299.79,545.104 277.308,536.468 259.716,522.072 C237.464,560.56 195.866,586.458 148.21,586.458 C81.316,586.458 26.348,535.43 20.088,470.18 C65.866,577.938 207.738,571.892 258.264,485.078 C332.052,534.002 423.406,501.31 423.392,418.622" fill="#7B913C"/>
    <path d="M172.696,410.764 C177.07,418.654 179.56,427.73 179.56,437.39 C179.56,467.776 154.922,492.414 124.534,492.414 C94.146,492.414 69.508,467.776 69.508,437.39 C69.508,417.344 80.226,399.806 96.246,390.188 C89.068,380.066 84.85,367.698 84.85,354.35 C84.85,333.828 94.82,315.632 110.176,304.344 C108.886,299.44 108.194,294.296 108.194,288.988 C108.194,258.11 131.504,232.69 161.486,229.34 C160.654,225.338 160.216,221.196 160.216,216.954 C160.216,183.434 187.392,156.26 220.912,156.26 C254.434,156.26 281.608,183.434 281.608,216.954 C281.608,223.35 280.62,229.516 278.782,235.308 C292.87,243.838 302.286,259.312 302.286,276.982 C302.286,299.92 286.42,319.15 265.064,324.31 C265.414,326.712 265.6,329.172 265.6,331.672 C265.6,335.854 265.09,339.914 264.136,343.8 C267.106,343.284 270.152,343.014 273.27,343.014 C302.558,343.014 326.294,366.754 326.294,396.038 C326.294,425.318 302.558,449.06 273.27,449.06 C243.99,449.06 220.246,425.318 220.246,396.038 C220.246,391.12 220.92,386.364 222.172,381.844 C219.798,382.182 217.374,382.364 214.91,382.364 C210.784,382.364 206.774,381.866 202.934,380.936 C196.686,394.086 185.946,404.69 172.696,410.764" fill="#9FB83B"/>
    <path d="M220.98,825.5 C219.072,826.248 217.102,826.918 215.064,827.534 C267.528,842.04 318.174,852.748 368.194,860.876 C417.318,868.856 466.188,874.308 514.388,878.858 C517.06,877.544 519.542,876.152 522.02,874.76 C473.436,870.318 424.252,865.074 374.678,857.232 C324.41,849.288 273.44,838.824 220.98,825.5 M242.98,800.642 C242.726,801.818 242.412,802.97 242.03,804.066 C293.982,814.636 345.278,824.586 395.92,832.322 C445.826,839.944 495.44,845.326 544.532,849.984 C545.484,848.218 546.376,846.48 547.456,844.712 C497.854,840.19 447.862,835.008 397.634,827.694 C346.622,820.264 295.19,810.732 242.98,800.642 M59.84,842.33 C58.502,842.974 57.232,843.618 56.024,844.362 C103.08,863.522 150.282,883.492 196.434,906.308 C242.624,929.148 285.966,949.15 325.84,956.908 C327.368,955.118 329.024,953.51 330.676,951.906 C290.422,944.2 247.456,926.688 200.95,903.926 C154.666,881.278 107.218,861.38 59.84,842.33 M96.596,833.792 C146.834,852.418 195.366,875.826 246.032,894.108 C290.924,910.302 336.27,914.952 379.832,921.642 C381.358,921.054 382.882,920.436 384.406,919.848 C337.732,912.248 290.356,903.07 240.692,888.084 C239.36,888.006 237.896,887.766 236.432,887.364 C232.616,886.294 229.438,884.396 228.29,882.548 C187.596,865.024 146.64,848.594 105.436,833.18 C102.508,833.368 99.582,833.58 96.596,833.792 M243.49,864.434 C278.658,873.264 313.128,880.524 347.208,886.428 C380.794,892.244 414.296,896.702 447.362,900.69 C450.988,899.73 454.614,898.764 458.174,897.826 C422.694,893.732 386.834,889.124 350.768,883.004 C314.146,876.786 277.194,869.008 239.102,859.108 C240.758,860.848 242.284,862.64 243.49,864.434 M162.856,833.928 C177.93,839.336 192.998,844.844 207.944,850.468 L207.944,850.438 C196.304,843.452 181.172,837.81 165.972,834.566 C164.956,834.358 163.938,834.144 162.856,833.928 M321.708,1018.182 C321.388,1022.2 316.302,1026.344 310.39,1027.524 C304.542,1028.62 300.026,1026.238 300.278,1022.2 C300.914,1013.638 302.124,1005.716 303.966,998.384 C263.968,979.572 220.976,951.754 176.53,926.75 C132.386,901.924 87.12,879.95 41.972,858.918 C41.462,860.204 40.888,861.544 40.572,862.936 C39.998,864.674 34.85,864.86 28.932,863.256 C23.02,861.676 18.76,859.134 19.204,857.42 C20.032,854.88 21.048,852.524 22.384,850.358 C16.724,847.95 11.066,845.542 5.468,843.19 C9.41,839.282 13.292,835.214 17.238,831.092 C20.73,831.95 24.29,832.804 27.85,833.66 C30.908,834.816 33.96,835.964 37.012,837.114 C38.28,836.414 39.552,835.772 40.888,835.188 C38.092,834.144 35.356,833.18 32.622,832.136 C29.378,830.612 26.072,829.03 22.894,827.56 C33.704,825.182 44.452,822.56 55.324,819.802 C61.808,821.94 68.298,824.082 74.786,826.248 C77.454,825.874 80.186,825.556 82.922,825.26 C78.536,823.786 74.212,822.29 69.888,820.816 C70.012,820.016 70.012,819.184 70.08,818.356 C85.464,818.432 100.854,818.382 116.116,818.14 C121.268,819.826 126.292,821.514 131.378,823.172 C134.114,823.118 136.846,823.118 139.648,823.118 C136.974,822.232 134.242,821.354 131.574,820.47 C131.828,819.318 132.142,818.14 132.59,817.044 C146.58,816.35 160.692,815.576 174.748,814.662 C180.472,816.454 186.258,818.222 192.044,820.044 C194.46,819.638 196.752,819.134 198.912,818.52 C193.192,816.748 187.338,814.956 181.742,813.246 C190.9,807.706 200.124,801.926 209.404,795.906 C213.668,797.058 217.99,798.178 222.312,799.356 C222.57,798.34 222.884,797.322 223.078,796.25 C219.072,795.234 215.192,794.3 211.248,793.28 C212.524,786.54 213.668,779.688 214.876,772.732 C218.436,772.84 221.932,772.92 225.496,773.028 C289.912,785.738 353.144,797.764 415.758,806.982 C477.41,816.064 538.68,822.37 599.348,827.748 C594.576,833.714 590.06,839.764 585.544,845.916 C582.492,846.238 579.442,846.532 576.454,846.824 C574.738,846.72 572.954,846.612 571.302,846.48 C570.156,848.54 569.016,850.438 568.312,851.804 C569.966,851.964 571.746,852.068 573.59,852.176 C575.754,852.634 577.918,853.032 580.206,853.432 C570.284,859.644 560.428,866.012 550.83,872.566 C548.918,874.01 546.948,875.402 544.786,876.768 L544.786,876.798 L544.724,876.82 C531.304,885.76 513.374,892.638 493.342,898.898 C506.442,899.566 518.458,901.386 528.062,904.25 C543.83,908.638 553.562,915.942 552.608,926.35 L552.544,926.378 C552.354,929.16 551.336,932.158 549.492,935.396 C547.836,938.364 541.478,941.604 535.12,942.592 C528.824,943.528 524.946,941.79 526.472,938.716 C527.804,936.144 528.572,933.788 528.7,931.622 L528.632,931.65 C529.206,923.464 521.704,917.708 509.682,914.254 C497.348,910.538 480.558,909.148 463.006,910.324 C458.3,910.62 453.534,911.152 448.7,911.93 C448.192,912.034 447.808,912.17 447.362,912.274 C410.478,923.034 371.752,935.05 346.38,960.414 C346.506,960.44 346.638,960.47 346.766,960.494 C340.466,973.498 334.492,986.716 328.764,1000.2 C327.3,1000.5 325.84,1000.766 324.508,1001.032 C323.234,1006.386 322.282,1012.112 321.708,1018.182" fill="#B8B0A5"/>
    <path d="M308.522,1019.446 C308.728,1026.004 303.576,1031.49 297.014,1031.698 C290.454,1031.902 284.968,1026.748 284.76,1020.192 C280.538,887.194 347.412,856.758 407.432,829.444 L409.894,828.324 C410.012,828.268 410.13,828.212 410.254,828.158 C451.542,809.338 488.27,791.288 486.176,732.24 C486.122,730.656 485.532,684.106 485.418,682.46 C484.98,675.898 489.946,670.226 496.508,669.788 C503.064,669.348 508.742,674.316 509.174,680.876 C509.308,682.798 509.916,729.62 509.99,731.474 C512.12,785.202 490.074,811.324 459.272,830.078 C473.092,833.982 486.38,840.552 497.912,849.414 C516.752,863.896 531.02,884.498 535.524,909.694 L535.478,909.706 C536.668,916.35 537.176,923.268 536.91,930.424 C536.676,936.984 531.172,942.114 524.61,941.886 C518.048,941.65 512.92,936.144 513.148,929.584 C513.354,924.086 512.976,918.846 512.09,913.886 L512.044,913.886 C508.65,894.918 497.772,879.302 483.376,868.236 C468.716,856.968 450.516,850.4 432.804,849.744 C428.062,849.566 423.284,849.838 418.548,850.588 L417.31,851.152 C364.098,875.372 304.802,902.36 308.522,1019.446" fill="#56381F"/>
    <path d="M34.072,860.282 C34.228,865.362 30.236,869.614 25.156,869.776 C20.074,869.932 15.826,865.942 15.664,860.858 C12.394,757.834 64.2,734.252 110.694,713.092 L112.598,712.228 C112.692,712.18 112.782,712.142 112.88,712.1 C144.708,697.588 173.038,683.668 171.712,638.46 C171.668,637.018 171.044,620.162 170.94,618.656 C170.604,613.576 174.452,609.182 179.534,608.842 C184.614,608.504 189.01,612.348 189.35,617.432 C189.46,619.052 190.096,636.02 190.156,637.574 C191.688,678.942 174.642,699.104 150.852,713.586 C161.558,716.61 171.854,721.7 180.784,728.566 C195.378,739.786 206.43,755.742 209.92,775.26 L209.886,775.268 C210.806,780.414 211.198,785.774 210.994,791.318 C210.814,796.406 206.55,800.38 201.466,800.2 C196.382,800.02 192.408,795.752 192.59,790.674 C192.746,786.41 192.452,782.354 191.766,778.51 L191.73,778.51 C189.104,763.816 180.676,751.718 169.526,743.148 C158.168,734.414 144.068,729.33 130.348,728.816 C126.676,728.682 122.972,728.894 119.302,729.476 L118.344,729.91 C77.122,748.672 31.19,769.578 34.072,860.282" fill="#56381F"/>
    <path d="M5.554,790.178 L14.872,790.968 L325.384,925.776 L303.828,991.738 L5.554,790.178" fill="#B89046"/>
    <path d="M443.934,829.432 L97.934,712.994 L98.076,705.482 L482.81,790.812 L443.934,829.432" fill="#B89046"/>
    <path d="M0,830.698 L303.828,991.732 L316.956,925.086 L5.554,790.178 L0,830.698" fill="#E2B869"/>
    <path d="M98.076,705.482 L442.416,820.596 L482.806,790.81 L133.672,686.55 L98.076,705.482" fill="#E2B869"/>
    <path d="M139.35,681.628 L159.798,641.738 L515.246,727.568 L492.956,783.288 L139.35,681.628" fill="#E2B869"/>
    <path d="M160.94,636.564 L159.928,599.202 L516.384,664.332 L514.872,713.814 L160.94,636.564" fill="#E2B869"/>
    <path d="M9.02,777.666 L18.344,784.344 L326.264,916.308 L359.874,863.168 L9.02,777.666" fill="#8F662D"/>
    <path d="M516.384,664.332 L524.464,663.07 L522.952,711.794 L514.872,713.816 L516.384,664.332" fill="#A47A31"/>
    <path d="M524.466,663.07 L169.272,597.688 L159.93,599.2 L516.386,664.332 L524.466,663.07" fill="#B89046"/>
    <path d="M515.246,727.568 L522.446,731.358 L500.786,786.582 L492.956,783.288 L515.246,727.568" fill="#A47A31"/>
    <path d="M45.5,732.584 L45.988,738.398 L369.81,862.662 L421.952,830 L45.5,732.584" fill="#B89046"/>
    <path d="M482.806,790.812 L483.882,799.834 L443.934,829.432 L442.416,820.6 L482.806,790.812" fill="#A47A31"/>
    <path d="M421.952,830 L421.942,839.314 L369.81,862.66 L369.696,853.984 L421.952,830" fill="#A47A31"/>
    <path d="M359.874,863.168 L363.376,870.108 L326.264,916.308 L320.754,910.83 L359.874,863.168" fill="#A47A31"/>
    <path d="M316.956,925.086 L325.382,925.776 L313.502,990.984 L303.828,991.732 L316.956,925.086" fill="#A47A31"/>
    <path d="M9.02,777.666 L33.498,742.306 L359.874,863.168 L320.754,910.83 L9.02,777.666" fill="#E2B869"/>
    <path d="M45.5,732.584 L84.38,713.904 L421.952,830 L369.696,853.984 L45.5,732.584" fill="#E2B869"/>
  </g>
</svg>
